<mxfile host="65bd71144e">
    <diagram name="Page-1" id="_lQ7lEu0XjZIsgZ5TSv2">
        <mxGraphModel dx="411" dy="810" grid="1" gridSize="10" guides="1" tooltips="1" connect="1" arrows="1" fold="1" page="1" pageScale="1" pageWidth="850" pageHeight="1100" math="0" shadow="0">
            <root>
                <mxCell id="0"/>
                <mxCell id="1" parent="0"/>
                <mxCell id="S6AJj1KUtQfwAuEwmfS2-3" value="" style="edgeStyle=orthogonalEdgeStyle;rounded=0;orthogonalLoop=1;jettySize=auto;html=1;fontSize=18;" parent="1" source="S6AJj1KUtQfwAuEwmfS2-1" edge="1">
                    <mxGeometry relative="1" as="geometry">
                        <mxPoint x="230" y="530" as="targetPoint"/>
                    </mxGeometry>
                </mxCell>
                <mxCell id="S6AJj1KUtQfwAuEwmfS2-17" value="=" style="edgeLabel;html=1;align=center;verticalAlign=middle;resizable=0;points=[];fontSize=18;" parent="S6AJj1KUtQfwAuEwmfS2-3" vertex="1" connectable="0">
                    <mxGeometry x="0.0805" y="-1" relative="1" as="geometry">
                        <mxPoint x="-4" y="-13" as="offset"/>
                    </mxGeometry>
                </mxCell>
                <mxCell id="S6AJj1KUtQfwAuEwmfS2-5" value="" style="edgeStyle=orthogonalEdgeStyle;rounded=0;orthogonalLoop=1;jettySize=auto;html=1;fontSize=18;" parent="1" source="S6AJj1KUtQfwAuEwmfS2-1" target="S6AJj1KUtQfwAuEwmfS2-4" edge="1">
                    <mxGeometry relative="1" as="geometry"/>
                </mxCell>
                <mxCell id="S6AJj1KUtQfwAuEwmfS2-7" value="" style="edgeStyle=orthogonalEdgeStyle;rounded=0;orthogonalLoop=1;jettySize=auto;html=1;fontSize=18;" parent="1" source="S6AJj1KUtQfwAuEwmfS2-1" target="S6AJj1KUtQfwAuEwmfS2-6" edge="1">
                    <mxGeometry relative="1" as="geometry"/>
                </mxCell>
                <mxCell id="S6AJj1KUtQfwAuEwmfS2-22" value="i" style="edgeLabel;html=1;align=center;verticalAlign=middle;resizable=0;points=[];fontSize=18;" parent="S6AJj1KUtQfwAuEwmfS2-7" vertex="1" connectable="0">
                    <mxGeometry x="0.15" y="1" relative="1" as="geometry">
                        <mxPoint x="-14" y="3" as="offset"/>
                    </mxGeometry>
                </mxCell>
                <mxCell id="S6AJj1KUtQfwAuEwmfS2-1" value="q0" style="ellipse;whiteSpace=wrap;html=1;aspect=fixed;fontSize=18;" parent="1" vertex="1">
                    <mxGeometry x="70" y="490" width="80" height="80" as="geometry"/>
                </mxCell>
                <mxCell id="S6AJj1KUtQfwAuEwmfS2-28" value="" style="edgeStyle=orthogonalEdgeStyle;rounded=0;orthogonalLoop=1;jettySize=auto;html=1;fontSize=18;" parent="1" source="S6AJj1KUtQfwAuEwmfS2-4" target="S6AJj1KUtQfwAuEwmfS2-27" edge="1">
                    <mxGeometry relative="1" as="geometry"/>
                </mxCell>
                <mxCell id="S6AJj1KUtQfwAuEwmfS2-4" value="q6" style="ellipse;whiteSpace=wrap;html=1;aspect=fixed;fontSize=18;" parent="1" vertex="1">
                    <mxGeometry x="70" y="650" width="80" height="80" as="geometry"/>
                </mxCell>
                <mxCell id="S6AJj1KUtQfwAuEwmfS2-19" value="" style="edgeStyle=orthogonalEdgeStyle;rounded=0;orthogonalLoop=1;jettySize=auto;html=1;fontSize=18;" parent="1" source="S6AJj1KUtQfwAuEwmfS2-6" target="S6AJj1KUtQfwAuEwmfS2-18" edge="1">
                    <mxGeometry relative="1" as="geometry"/>
                </mxCell>
                <mxCell id="S6AJj1KUtQfwAuEwmfS2-6" value="q3" style="ellipse;whiteSpace=wrap;html=1;aspect=fixed;fontSize=18;" parent="1" vertex="1">
                    <mxGeometry x="70" y="330" width="80" height="80" as="geometry"/>
                </mxCell>
                <mxCell id="S6AJj1KUtQfwAuEwmfS2-10" value="" style="edgeStyle=orthogonalEdgeStyle;rounded=0;orthogonalLoop=1;jettySize=auto;html=1;fontSize=18;" parent="1" source="S6AJj1KUtQfwAuEwmfS2-8" target="S6AJj1KUtQfwAuEwmfS2-9" edge="1">
                    <mxGeometry relative="1" as="geometry"/>
                </mxCell>
                <mxCell id="S6AJj1KUtQfwAuEwmfS2-16" value="=" style="edgeLabel;html=1;align=center;verticalAlign=middle;resizable=0;points=[];fontSize=18;" parent="S6AJj1KUtQfwAuEwmfS2-10" vertex="1" connectable="0">
                    <mxGeometry y="3" relative="1" as="geometry">
                        <mxPoint y="-10" as="offset"/>
                    </mxGeometry>
                </mxCell>
                <mxCell id="S6AJj1KUtQfwAuEwmfS2-8" value="q1" style="ellipse;shape=doubleEllipse;whiteSpace=wrap;html=1;aspect=fixed;fontSize=18;" parent="1" vertex="1">
                    <mxGeometry x="230" y="490" width="80" height="80" as="geometry"/>
                </mxCell>
                <mxCell id="S6AJj1KUtQfwAuEwmfS2-9" value="q2" style="ellipse;shape=doubleEllipse;whiteSpace=wrap;html=1;aspect=fixed;fontSize=18;" parent="1" vertex="1">
                    <mxGeometry x="390" y="490" width="80" height="80" as="geometry"/>
                </mxCell>
                <mxCell id="S6AJj1KUtQfwAuEwmfS2-21" value="" style="edgeStyle=orthogonalEdgeStyle;rounded=0;orthogonalLoop=1;jettySize=auto;html=1;fontSize=18;" parent="1" source="S6AJj1KUtQfwAuEwmfS2-18" target="S6AJj1KUtQfwAuEwmfS2-20" edge="1">
                    <mxGeometry relative="1" as="geometry"/>
                </mxCell>
                <mxCell id="S6AJj1KUtQfwAuEwmfS2-18" value="q4" style="ellipse;whiteSpace=wrap;html=1;aspect=fixed;fontSize=18;" parent="1" vertex="1">
                    <mxGeometry x="230" y="330" width="80" height="80" as="geometry"/>
                </mxCell>
                <mxCell id="S6AJj1KUtQfwAuEwmfS2-20" value="q5" style="ellipse;shape=doubleEllipse;whiteSpace=wrap;html=1;aspect=fixed;fontSize=18;" parent="1" vertex="1">
                    <mxGeometry x="390" y="330" width="80" height="80" as="geometry"/>
                </mxCell>
                <mxCell id="S6AJj1KUtQfwAuEwmfS2-24" value="n" style="text;html=1;align=center;verticalAlign=middle;resizable=0;points=[];autosize=1;strokeColor=none;fillColor=none;fontSize=18;" parent="1" vertex="1">
                    <mxGeometry x="176" y="336" width="30" height="40" as="geometry"/>
                </mxCell>
                <mxCell id="S6AJj1KUtQfwAuEwmfS2-25" value="t" style="text;html=1;align=center;verticalAlign=middle;resizable=0;points=[];autosize=1;strokeColor=none;fillColor=none;fontSize=18;" parent="1" vertex="1">
                    <mxGeometry x="332" y="338" width="30" height="40" as="geometry"/>
                </mxCell>
                <mxCell id="S6AJj1KUtQfwAuEwmfS2-26" value="f" style="text;html=1;align=center;verticalAlign=middle;resizable=0;points=[];autosize=1;strokeColor=none;fillColor=none;fontSize=18;" parent="1" vertex="1">
                    <mxGeometry x="80" y="593" width="30" height="40" as="geometry"/>
                </mxCell>
                <mxCell id="S6AJj1KUtQfwAuEwmfS2-31" value="" style="edgeStyle=orthogonalEdgeStyle;rounded=0;orthogonalLoop=1;jettySize=auto;html=1;fontSize=18;" parent="1" source="S6AJj1KUtQfwAuEwmfS2-27" edge="1">
                    <mxGeometry relative="1" as="geometry">
                        <mxPoint x="390" y="690" as="targetPoint"/>
                    </mxGeometry>
                </mxCell>
                <mxCell id="S6AJj1KUtQfwAuEwmfS2-32" value="r" style="edgeLabel;html=1;align=center;verticalAlign=middle;resizable=0;points=[];fontSize=18;" parent="S6AJj1KUtQfwAuEwmfS2-31" vertex="1" connectable="0">
                    <mxGeometry x="-0.125" y="6" relative="1" as="geometry">
                        <mxPoint x="4" y="-10" as="offset"/>
                    </mxGeometry>
                </mxCell>
                <mxCell id="S6AJj1KUtQfwAuEwmfS2-27" value="q7" style="ellipse;whiteSpace=wrap;html=1;aspect=fixed;fontSize=18;" parent="1" vertex="1">
                    <mxGeometry x="230" y="650" width="80" height="80" as="geometry"/>
                </mxCell>
                <mxCell id="S6AJj1KUtQfwAuEwmfS2-29" value="o" style="text;html=1;align=center;verticalAlign=middle;resizable=0;points=[];autosize=1;strokeColor=none;fillColor=none;fontSize=18;" parent="1" vertex="1">
                    <mxGeometry x="172" y="655" width="30" height="40" as="geometry"/>
                </mxCell>
                <mxCell id="S6AJj1KUtQfwAuEwmfS2-33" value="q8" style="ellipse;shape=doubleEllipse;whiteSpace=wrap;html=1;aspect=fixed;fontSize=18;" parent="1" vertex="1">
                    <mxGeometry x="390" y="650" width="80" height="80" as="geometry"/>
                </mxCell>
            </root>
        </mxGraphModel>
    </diagram>
</mxfile>